<svg xmlns="http://www.w3.org/2000/svg" viewBox="0 0 1024 1024" width="100%" height="100%">
  <defs>
    <linearGradient id="bgGrad" x1="0%" y1="0%" x2="100%" y2="100%">
      <stop offset="0%" stop-color="#0F172A" />
      <stop offset="100%" stop-color="#1E1B4B" />
    </linearGradient>

    <linearGradient id="bookLeft" x1="0%" y1="0%" x2="100%" y2="100%">
      <stop offset="0%" stop-color="#38BDF8" />
      <stop offset="100%" stop-color="#2563EB" />
    </linearGradient>

    <linearGradient id="bookRight" x1="0%" y1="0%" x2="100%" y2="100%">
      <stop offset="0%" stop-color="#60A5FA" />
      <stop offset="100%" stop-color="#4F46E5" />
    </linearGradient>

    <linearGradient id="aiSparkle" x1="0%" y1="0%" x2="100%" y2="100%">
      <stop offset="0%" stop-color="#C084FC" />
      <stop offset="100%" stop-color="#F472B6" />
    </linearGradient>

    <linearGradient id="aiSparkleGlow" x1="0%" y1="0%" x2="100%" y2="100%">
      <stop offset="0%" stop-color="#FDE047" />
      <stop offset="100%" stop-color="#2DD4BF" />
    </linearGradient>

    <filter id="glow" x="-20%" y="-20%" width="140%" height="140%">
      <feGaussianBlur stdDeviation="16" result="blur" />
      <feComposite in="SourceGraphic" in2="blur" operator="over" />
    </filter>
    
    <filter id="shadow" x="-10%" y="-10%" width="120%" height="130%">
      <feDropShadow dx="0" dy="16" stdDeviation="16" flood-color="#000000" flood-opacity="0.4" />
    </filter>
  </defs>

  <rect x="32" y="32" width="960" height="960" rx="224" ry="224" fill="url(#bgGrad)" />
  <rect x="32" y="32" width="960" height="960" rx="224" ry="224" fill="none" stroke="#312E81" stroke-width="6" />

  <g filter="url(#shadow)">
    <path d="M 512 770 Q 366 830 220 720 L 220 690 Q 366 800 512 740 Z" fill="#0F172A" opacity="0.8"/>
    <path d="M 512 770 Q 658 830 804 720 L 804 690 Q 658 800 512 740 Z" fill="#0F172A" opacity="0.8"/>
    
    <path d="M 512 740 Q 366 800 220 690 L 220 660 Q 366 770 512 710 Z" fill="#1E3A8A" />
    <path d="M 512 740 Q 658 800 804 690 L 804 660 Q 658 770 512 710 Z" fill="#312E81" />

    <path d="M 512 710 Q 366 770 220 660 L 220 400 Q 366 510 512 450 Z" fill="url(#bookLeft)" />
    <path d="M 512 710 Q 658 770 804 660 L 804 400 Q 658 510 512 450 Z" fill="url(#bookRight)" />
    
    <line x1="512" y1="450" x2="512" y2="710" stroke="#BFDBFE" stroke-width="4" opacity="0.6" stroke-linecap="round"/>
  </g>

  <g opacity="0.8">
    <path d="M 330 560 L 390 490 L 460 530 L 512 450" fill="none" stroke="#22D3EE" stroke-width="4" stroke-linejoin="round" />
    <circle cx="330" cy="560" r="6" fill="#22D3EE" />
    <circle cx="390" cy="490" r="6" fill="#22D3EE" />
    <circle cx="460" cy="530" r="6" fill="#22D3EE" />

    <path d="M 694 560 L 634 490 L 564 530 L 512 450" fill="none" stroke="#A78BFA" stroke-width="4" stroke-linejoin="round" />
    <circle cx="694" cy="560" r="6" fill="#A78BFA" />
    <circle cx="634" cy="490" r="6" fill="#A78BFA" />
    <circle cx="564" cy="530" r="6" fill="#A78BFA" />
  </g>

  <g filter="url(#glow)">
    <path d="M 512 80 C 512 180 410 260 310 260 C 410 260 512 340 512 440 C 512 340 614 260 714 260 C 614 260 512 180 512 80 Z" fill="url(#aiSparkle)" />
    <path d="M 512 140 C 512 210 440 260 370 260 C 440 260 512 310 512 380 C 512 310 584 260 654 260 C 584 260 512 210 512 140 Z" fill="#FFFFFF" opacity="0.9" />

    <path d="M 760 100 C 760 130 730 150 700 150 C 730 150 760 170 760 200 C 760 170 790 150 820 150 C 790 150 760 130 760 100 Z" fill="url(#aiSparkleGlow)" />
    <path d="M 760 125 C 760 140 745 150 730 150 C 745 150 760 160 760 175 C 760 160 775 150 790 150 C 775 150 760 140 760 125 Z" fill="#FFFFFF" />

    <path d="M 260 230 C 260 250 240 265 220 265 C 240 265 260 280 260 300 C 260 280 280 265 300 265 C 280 265 260 250 260 230 Z" fill="#2DD4BF" />
  </g>
</svg>